<svg width="277" height="43" viewBox="0 0 277 43" fill="none" xmlns="http://www.w3.org/2000/svg">
<path d="M138.144 18.2093C137.597 18.2093 137.094 18.116 136.634 17.9293C136.174 17.7426 135.774 17.4826 135.434 17.1493C135.094 16.8093 134.83 16.4126 134.644 15.9593C134.457 15.4993 134.364 15.0026 134.364 14.4693C134.364 13.936 134.457 13.4426 134.644 12.9893C134.83 12.536 135.094 12.1426 135.434 11.8093C135.774 11.4693 136.174 11.206 136.634 11.0193C137.094 10.8326 137.597 10.7393 138.144 10.7393C138.69 10.7393 139.194 10.8326 139.654 11.0193C140.114 11.206 140.514 11.4693 140.854 11.8093C141.194 12.1426 141.457 12.536 141.644 12.9893C141.83 13.4426 141.924 13.936 141.924 14.4693C141.924 15.0026 141.83 15.4993 141.644 15.9593C141.457 16.4126 141.194 16.8093 140.854 17.1493C140.514 17.4826 140.114 17.7426 139.654 17.9293C139.194 18.116 138.69 18.2093 138.144 18.2093ZM138.144 17.1893C138.65 17.1893 139.097 17.0726 139.484 16.8393C139.87 16.606 140.174 16.286 140.394 15.8793C140.614 15.466 140.724 14.996 140.724 14.4693C140.724 13.9426 140.614 13.476 140.394 13.0693C140.174 12.6626 139.87 12.3426 139.484 12.1093C139.097 11.876 138.65 11.7593 138.144 11.7593C137.644 11.7593 137.197 11.876 136.804 12.1093C136.417 12.3426 136.114 12.6626 135.894 13.0693C135.674 13.476 135.564 13.9426 135.564 14.4693C135.564 14.996 135.674 15.466 135.894 15.8793C136.114 16.286 136.417 16.606 136.804 16.8393C137.197 17.0726 137.644 17.1893 138.144 17.1893ZM144.257 18.0493H143.107V10.8993H145.967C146.461 10.8993 146.894 10.9893 147.267 11.1693C147.641 11.3426 147.931 11.5893 148.137 11.9093C148.351 12.2226 148.457 12.5926 148.457 13.0193C148.457 13.4393 148.351 13.8093 148.137 14.1293C147.931 14.4493 147.641 14.6993 147.267 14.8793C146.894 15.0526 146.461 15.1393 145.967 15.1393H144.157V14.1593H145.967C146.374 14.1593 146.694 14.0593 146.927 13.8593C147.167 13.6526 147.287 13.3726 147.287 13.0193C147.287 12.666 147.167 12.3893 146.927 12.1893C146.694 11.9826 146.374 11.8793 145.967 11.8793H144.257V18.0493ZM149.177 18.0493H147.747L145.147 14.7193H146.467L149.177 18.0493ZM156.27 18.0493H155.2V17.0393L155.32 17.0893C155.087 17.4426 154.764 17.7193 154.35 17.9193C153.944 18.1126 153.487 18.2093 152.98 18.2093C152.454 18.2093 151.967 18.1193 151.52 17.9393C151.074 17.7526 150.684 17.4926 150.35 17.1593C150.017 16.826 149.757 16.4326 149.57 15.9793C149.39 15.5193 149.3 15.016 149.3 14.4693C149.3 13.936 149.394 13.4426 149.58 12.9893C149.767 12.536 150.03 12.1426 150.37 11.8093C150.71 11.4693 151.11 11.206 151.57 11.0193C152.03 10.8326 152.53 10.7393 153.07 10.7393C153.697 10.7393 154.264 10.8626 154.77 11.1093C155.284 11.3493 155.7 11.676 156.02 12.0893L155.25 12.8593C155.01 12.5193 154.704 12.2526 154.33 12.0593C153.964 11.8593 153.544 11.7593 153.07 11.7593C152.577 11.7593 152.134 11.8793 151.74 12.1193C151.354 12.3526 151.05 12.6726 150.83 13.0793C150.61 13.486 150.5 13.9493 150.5 14.4693C150.5 14.996 150.61 15.466 150.83 15.8793C151.057 16.2926 151.364 16.616 151.75 16.8493C152.144 17.0826 152.594 17.1993 153.1 17.1993C153.6 17.1993 154.044 17.0926 154.43 16.8793C154.824 16.6593 155.107 16.356 155.28 15.9693L155.19 16.3593V15.1493H153.01V14.2093H156.27V18.0493ZM162.557 16.3293H158.437V15.3493H162.557V16.3293ZM163.977 18.0493H162.757L160.307 11.6793H160.687L158.237 18.0493H157.057L159.887 10.8993H161.147L163.977 18.0493ZM166.066 18.0493H164.946V10.8993H166.166L170.226 16.9193H169.836V10.8993H170.956V18.0493H169.736L165.666 12.0293H166.066V18.0493ZM173.515 18.0493H172.365V10.8993H173.515V18.0493ZM180.061 18.0493H174.611V17.0593L178.531 11.8893H174.741V10.8993H179.931V11.8893L176.011 17.0593H180.061V18.0493ZM186.21 16.3293H182.09V15.3493H186.21V16.3293ZM187.63 18.0493H186.41L183.96 11.6793H184.34L181.89 18.0493H180.71L183.54 10.8993H184.8L187.63 18.0493ZM190.417 18.0493H189.267V11.7893H190.417V18.0493ZM192.707 11.8893H186.987V10.8993H192.707V11.8893ZM194.854 18.0493H193.704V10.8993H194.854V18.0493ZM199.81 18.2093C199.263 18.2093 198.76 18.116 198.3 17.9293C197.84 17.7426 197.44 17.4826 197.1 17.1493C196.76 16.8093 196.496 16.4126 196.31 15.9593C196.123 15.4993 196.03 15.0026 196.03 14.4693C196.03 13.936 196.123 13.4426 196.31 12.9893C196.496 12.536 196.76 12.1426 197.1 11.8093C197.44 11.4693 197.84 11.206 198.3 11.0193C198.76 10.8326 199.263 10.7393 199.81 10.7393C200.356 10.7393 200.86 10.8326 201.32 11.0193C201.78 11.206 202.18 11.4693 202.52 11.8093C202.86 12.1426 203.123 12.536 203.31 12.9893C203.496 13.4426 203.59 13.936 203.59 14.4693C203.59 15.0026 203.496 15.4993 203.31 15.9593C203.123 16.4126 202.86 16.8093 202.52 17.1493C202.18 17.4826 201.78 17.7426 201.32 17.9293C200.86 18.116 200.356 18.2093 199.81 18.2093ZM199.81 17.1893C200.316 17.1893 200.763 17.0726 201.15 16.8393C201.536 16.606 201.84 16.286 202.06 15.8793C202.28 15.466 202.39 14.996 202.39 14.4693C202.39 13.9426 202.28 13.476 202.06 13.0693C201.84 12.6626 201.536 12.3426 201.15 12.1093C200.763 11.876 200.316 11.7593 199.81 11.7593C199.31 11.7593 198.863 11.876 198.47 12.1093C198.083 12.3426 197.78 12.6626 197.56 13.0693C197.34 13.476 197.23 13.9426 197.23 14.4693C197.23 14.996 197.34 15.466 197.56 15.8793C197.78 16.286 198.083 16.606 198.47 16.8393C198.863 17.0726 199.31 17.1893 199.81 17.1893ZM205.883 18.0493H204.763V10.8993H205.983L210.043 16.9193H209.653V10.8993H210.773V18.0493H209.553L205.483 12.0293H205.883V18.0493ZM215.186 18.0493H214.036V10.8993H216.896C217.39 10.8993 217.823 10.9893 218.196 11.1693C218.57 11.3426 218.86 11.5893 219.066 11.9093C219.28 12.2226 219.386 12.5926 219.386 13.0193C219.386 13.4393 219.28 13.8093 219.066 14.1293C218.86 14.4493 218.57 14.6993 218.196 14.8793C217.823 15.0526 217.39 15.1393 216.896 15.1393H215.086V14.1593H216.896C217.303 14.1593 217.623 14.0593 217.856 13.8593C218.096 13.6526 218.216 13.3726 218.216 13.0193C218.216 12.666 218.096 12.3893 217.856 12.1893C217.623 11.9826 217.303 11.8793 216.896 11.8793H215.186V18.0493ZM220.106 18.0493H218.676L216.076 14.7193H217.396L220.106 18.0493ZM222.098 18.0493H220.948V10.8993H222.098V18.0493ZM223.084 16.8793L223.884 16.0993C224.064 16.326 224.277 16.5226 224.524 16.6893C224.777 16.856 225.047 16.9826 225.334 17.0693C225.627 17.156 225.934 17.1993 226.254 17.1993C226.601 17.1993 226.901 17.1526 227.154 17.0593C227.414 16.966 227.617 16.8326 227.764 16.6593C227.911 16.486 227.984 16.286 227.984 16.0593C227.984 15.7526 227.844 15.5093 227.564 15.3293C227.291 15.1493 226.807 15.006 226.114 14.8993C225.467 14.806 224.944 14.6726 224.544 14.4993C224.144 14.326 223.851 14.106 223.664 13.8393C223.484 13.5726 223.394 13.2593 223.394 12.8993C223.394 12.4726 223.511 12.0993 223.744 11.7793C223.984 11.4526 224.311 11.1993 224.724 11.0193C225.144 10.8326 225.624 10.7393 226.164 10.7393C226.791 10.7393 227.344 10.8593 227.824 11.0993C228.311 11.3393 228.727 11.6593 229.074 12.0593L228.294 12.8393C228.034 12.4993 227.727 12.2326 227.374 12.0393C227.027 11.8393 226.627 11.7393 226.174 11.7393C225.701 11.7393 225.314 11.8393 225.014 12.0393C224.714 12.2393 224.564 12.506 224.564 12.8393C224.564 13.0193 224.621 13.1726 224.734 13.2993C224.847 13.4193 225.034 13.5226 225.294 13.6093C225.561 13.696 225.914 13.7726 226.354 13.8393C227.014 13.9393 227.547 14.0826 227.954 14.2693C228.367 14.456 228.671 14.6926 228.864 14.9793C229.057 15.266 229.154 15.6093 229.154 16.0093C229.154 16.4493 229.031 16.836 228.784 17.1693C228.537 17.496 228.194 17.7526 227.754 17.9393C227.314 18.1193 226.807 18.2093 226.234 18.2093C225.561 18.2093 224.961 18.0893 224.434 17.8493C223.907 17.6093 223.457 17.286 223.084 16.8793ZM231.488 18.0493H230.338V10.8993H231.488V18.0493ZM236.638 18.0493H235.028L231.238 14.3393H231.388L234.758 10.8993H236.218L232.618 14.4793V14.1993L236.638 18.0493ZM139.664 29.3293H135.544V28.3493H139.664V29.3293ZM141.084 31.0493H139.864L137.414 24.6793H137.794L135.344 31.0493H134.164L136.994 23.8993H138.254L141.084 31.0493ZM142.459 29.8793L143.259 29.0993C143.439 29.326 143.652 29.5226 143.899 29.6893C144.152 29.856 144.422 29.9826 144.709 30.0693C145.002 30.156 145.309 30.1993 145.629 30.1993C145.976 30.1993 146.276 30.1526 146.529 30.0593C146.789 29.966 146.992 29.8326 147.139 29.6593C147.286 29.486 147.359 29.286 147.359 29.0593C147.359 28.7526 147.219 28.5093 146.939 28.3293C146.666 28.1493 146.182 28.006 145.489 27.8993C144.842 27.806 144.319 27.6726 143.919 27.4993C143.519 27.326 143.226 27.106 143.039 26.8393C142.859 26.5726 142.769 26.2593 142.769 25.8993C142.769 25.4726 142.886 25.0993 143.119 24.7793C143.359 24.4526 143.686 24.1993 144.099 24.0193C144.519 23.8326 144.999 23.7393 145.539 23.7393C146.166 23.7393 146.719 23.8593 147.199 24.0993C147.686 24.3393 148.102 24.6593 148.449 25.0593L147.669 25.8393C147.409 25.4993 147.102 25.2326 146.749 25.0393C146.402 24.8393 146.002 24.7393 145.549 24.7393C145.076 24.7393 144.689 24.8393 144.389 25.0393C144.089 25.2393 143.939 25.506 143.939 25.8393C143.939 26.0193 143.996 26.1726 144.109 26.2993C144.222 26.4193 144.409 26.5226 144.669 26.6093C144.936 26.696 145.289 26.7726 145.729 26.8393C146.389 26.9393 146.922 27.0826 147.329 27.2693C147.742 27.456 148.046 27.6926 148.239 27.9793C148.432 28.266 148.529 28.6093 148.529 29.0093C148.529 29.4493 148.406 29.836 148.159 30.1693C147.912 30.496 147.569 30.7526 147.129 30.9393C146.689 31.1193 146.182 31.2093 145.609 31.2093C144.936 31.2093 144.336 31.0893 143.809 30.8493C143.282 30.6093 142.832 30.286 142.459 29.8793ZM150.187 29.8793L150.987 29.0993C151.167 29.326 151.381 29.5226 151.627 29.6893C151.881 29.856 152.151 29.9826 152.437 30.0693C152.731 30.156 153.037 30.1993 153.357 30.1993C153.704 30.1993 154.004 30.1526 154.257 30.0593C154.517 29.966 154.721 29.8326 154.867 29.6593C155.014 29.486 155.087 29.286 155.087 29.0593C155.087 28.7526 154.947 28.5093 154.667 28.3293C154.394 28.1493 153.911 28.006 153.217 27.8993C152.571 27.806 152.047 27.6726 151.647 27.4993C151.247 27.326 150.954 27.106 150.767 26.8393C150.587 26.5726 150.497 26.2593 150.497 25.8993C150.497 25.4726 150.614 25.0993 150.847 24.7793C151.087 24.4526 151.414 24.1993 151.827 24.0193C152.247 23.8326 152.727 23.7393 153.267 23.7393C153.894 23.7393 154.447 23.8593 154.927 24.0993C155.414 24.3393 155.831 24.6593 156.177 25.0593L155.397 25.8393C155.137 25.4993 154.831 25.2326 154.477 25.0393C154.131 24.8393 153.731 24.7393 153.277 24.7393C152.804 24.7393 152.417 24.8393 152.117 25.0393C151.817 25.2393 151.667 25.506 151.667 25.8393C151.667 26.0193 151.724 26.1726 151.837 26.2993C151.951 26.4193 152.137 26.5226 152.397 26.6093C152.664 26.696 153.017 26.7726 153.457 26.8393C154.117 26.9393 154.651 27.0826 155.057 27.2693C155.471 27.456 155.774 27.6926 155.967 27.9793C156.161 28.266 156.257 28.6093 156.257 29.0093C156.257 29.4493 156.134 29.836 155.887 30.1693C155.641 30.496 155.297 30.7526 154.857 30.9393C154.417 31.1193 153.911 31.2093 153.337 31.2093C152.664 31.2093 152.064 31.0893 151.537 30.8493C151.011 30.6093 150.561 30.286 150.187 29.8793ZM163.461 31.0493H158.541V23.8993H163.461V24.8793H159.691V30.0693H163.461V31.0493ZM163.271 27.9093H159.591V26.9293H163.271V27.9093ZM165.244 29.8793L166.044 29.0993C166.224 29.326 166.437 29.5226 166.684 29.6893C166.937 29.856 167.207 29.9826 167.494 30.0693C167.787 30.156 168.094 30.1993 168.414 30.1993C168.761 30.1993 169.061 30.1526 169.314 30.0593C169.574 29.966 169.777 29.8326 169.924 29.6593C170.071 29.486 170.144 29.286 170.144 29.0593C170.144 28.7526 170.004 28.5093 169.724 28.3293C169.451 28.1493 168.967 28.006 168.274 27.8993C167.627 27.806 167.104 27.6726 166.704 27.4993C166.304 27.326 166.011 27.106 165.824 26.8393C165.644 26.5726 165.554 26.2593 165.554 25.8993C165.554 25.4726 165.671 25.0993 165.904 24.7793C166.144 24.4526 166.471 24.1993 166.884 24.0193C167.304 23.8326 167.784 23.7393 168.324 23.7393C168.951 23.7393 169.504 23.8593 169.984 24.0993C170.471 24.3393 170.887 24.6593 171.234 25.0593L170.454 25.8393C170.194 25.4993 169.887 25.2326 169.534 25.0393C169.187 24.8393 168.787 24.7393 168.334 24.7393C167.861 24.7393 167.474 24.8393 167.174 25.0393C166.874 25.2393 166.724 25.506 166.724 25.8393C166.724 26.0193 166.781 26.1726 166.894 26.2993C167.007 26.4193 167.194 26.5226 167.454 26.6093C167.721 26.696 168.074 26.7726 168.514 26.8393C169.174 26.9393 169.707 27.0826 170.114 27.2693C170.527 27.456 170.831 27.6926 171.024 27.9793C171.217 28.266 171.314 28.6093 171.314 29.0093C171.314 29.4493 171.191 29.836 170.944 30.1693C170.697 30.496 170.354 30.7526 169.914 30.9393C169.474 31.1193 168.967 31.2093 168.394 31.2093C167.721 31.2093 167.121 31.0893 166.594 30.8493C166.067 30.6093 165.617 30.286 165.244 29.8793ZM172.973 29.8793L173.773 29.0993C173.953 29.326 174.166 29.5226 174.413 29.6893C174.666 29.856 174.936 29.9826 175.223 30.0693C175.516 30.156 175.823 30.1993 176.143 30.1993C176.489 30.1993 176.789 30.1526 177.043 30.0593C177.303 29.966 177.506 29.8326 177.653 29.6593C177.799 29.486 177.873 29.286 177.873 29.0593C177.873 28.7526 177.733 28.5093 177.453 28.3293C177.179 28.1493 176.696 28.006 176.003 27.8993C175.356 27.806 174.833 27.6726 174.433 27.4993C174.033 27.326 173.739 27.106 173.553 26.8393C173.373 26.5726 173.283 26.2593 173.283 25.8993C173.283 25.4726 173.399 25.0993 173.633 24.7793C173.873 24.4526 174.199 24.1993 174.613 24.0193C175.033 23.8326 175.513 23.7393 176.053 23.7393C176.679 23.7393 177.233 23.8593 177.713 24.0993C178.199 24.3393 178.616 24.6593 178.963 25.0593L178.183 25.8393C177.923 25.4993 177.616 25.2326 177.263 25.0393C176.916 24.8393 176.516 24.7393 176.063 24.7393C175.589 24.7393 175.203 24.8393 174.903 25.0393C174.603 25.2393 174.453 25.506 174.453 25.8393C174.453 26.0193 174.509 26.1726 174.623 26.2993C174.736 26.4193 174.923 26.5226 175.183 26.6093C175.449 26.696 175.803 26.7726 176.243 26.8393C176.903 26.9393 177.436 27.0826 177.843 27.2693C178.256 27.456 178.559 27.6926 178.753 27.9793C178.946 28.266 179.043 28.6093 179.043 29.0093C179.043 29.4493 178.919 29.836 178.673 30.1693C178.426 30.496 178.083 30.7526 177.643 30.9393C177.203 31.1193 176.696 31.2093 176.123 31.2093C175.449 31.2093 174.849 31.0893 174.323 30.8493C173.796 30.6093 173.346 30.286 172.973 29.8793ZM185.546 30.3393H184.696L181.866 24.4493L182.426 24.4293V31.0493H181.306V23.8993H182.686L185.396 29.5793H184.866L187.576 23.8993H188.926V31.0493H187.806V24.4293L188.366 24.4493L185.546 30.3393ZM196.358 31.0493H191.438V23.8993H196.358V24.8793H192.588V30.0693H196.358V31.0493ZM196.168 27.9093H192.488V26.9293H196.168V27.9093ZM199.681 31.0493H198.561V23.8993H199.781L203.841 29.9193H203.451V23.8993H204.571V31.0493H203.351L199.281 25.0293H199.681V31.0493ZM210.09 31.0493H208.94V24.7893H210.09V31.0493ZM212.38 24.8893H206.66V23.8993H212.38V24.8893Z" fill="#829ADA"/>
<rect width="24.7225" height="3.87164" rx="1.93582" transform="matrix(0 -1 -1 0 5.3822 32.4233)" fill="#1E5DFF"/>
<rect x="0.335191" y="8.32344" width="18.8439" height="4.87164" rx="2.43582" transform="rotate(-25.0821 0.335191 8.32344)" fill="#1E5DFF" stroke="#142551"/>
<rect width="12.4587" height="3.87164" rx="1.93582" transform="matrix(0 -1 -1 0 17.8524 39.4758)" fill="#1E5DFF"/>
<rect x="8.17041" y="12.0664" width="22.4385" height="3.87164" rx="1.93582" transform="rotate(-25.0821 8.17041 12.0664)" fill="#1E5DFF"/>
<rect x="39.2708" y="32.981" width="20.8793" height="3.87164" rx="1.93582" transform="rotate(151.324 39.2708 32.981)" fill="#1E5DFF"/>
<rect x="0.5" y="0.5" width="28.7069" height="4.87164" rx="2.43582" transform="matrix(0 -1 -1 0 39.562 34.7678)" fill="#1E5DFF" stroke="#142551"/>
<rect width="18.8586" height="3.87164" rx="1.93582" transform="matrix(0 -1 -1 0 11.6069 36.1472)" fill="#1E5DFF"/>
<rect x="11.5505" y="16.7897" width="28.7964" height="4.87164" rx="2.43582" transform="rotate(-25.0821 11.5505 16.7897)" fill="#1E5DFF" stroke="#142551"/>
<rect width="14.8246" height="3.87164" rx="1.93582" transform="matrix(0 -1 -1 0 32.337 30.0947)" fill="#1E5DFF"/>
<rect x="32.9858" y="29.3228" width="13.205" height="3.87164" rx="1.93582" transform="rotate(151.324 32.9858 29.3228)" fill="#1E5DFF"/>
<rect width="8.06708" height="3.87164" rx="1.93582" transform="matrix(0 -1 -1 0 26.1125 26.553)" fill="#1E5DFF"/>
<rect x="26.7275" y="25.6511" width="8.06708" height="3.87164" rx="1.93582" transform="rotate(151.324 26.7275 25.6511)" fill="#1E5DFF"/>
<path d="M60.9542 31.3245C59.8156 31.3245 58.7329 31.2311 57.7062 31.0445C56.6982 30.8578 55.7462 30.5871 54.8502 30.2325C53.0769 29.4858 51.6862 28.3565 50.6782 26.8445C49.6702 25.3325 49.1662 23.4005 49.1662 21.0485V20.9645C49.1662 19.8445 49.2876 18.8085 49.5302 17.8565C49.7916 16.9045 50.1836 16.0365 50.7062 15.2525C51.7329 13.6845 53.1329 12.4898 54.9062 11.6685C56.6796 10.8471 58.6956 10.4365 60.9542 10.4365C62.0742 10.4365 63.1382 10.5391 64.1462 10.7445C65.1542 10.9498 66.1062 11.2485 67.0022 11.6405C68.7942 12.4431 70.2129 13.6285 71.2582 15.1965C72.3036 16.7458 72.8262 18.6591 72.8262 20.9365V21.0765C72.8262 22.2338 72.6956 23.2885 72.4342 24.2405C72.1729 25.1925 71.7809 26.0511 71.2582 26.8165C70.2316 28.3285 68.8222 29.4578 67.0302 30.2045C65.2382 30.9511 63.2129 31.3245 60.9542 31.3245ZM60.9262 28.1885C61.7476 28.1885 62.5222 28.1325 63.2502 28.0205C63.9782 27.8898 64.6502 27.7031 65.2662 27.4605C66.5169 26.9938 67.4969 26.2378 68.2062 25.1925C68.9156 24.1285 69.2702 22.7471 69.2702 21.0485C69.2702 20.1711 69.1862 19.3778 69.0182 18.6685C68.8502 17.9591 68.5889 17.3338 68.2342 16.7925C67.5436 15.6911 66.5729 14.8791 65.3222 14.3565C64.0902 13.8338 62.6342 13.5725 60.9542 13.5725C58.4342 13.5725 56.4276 14.1791 54.9342 15.3925C53.4596 16.5871 52.7222 18.4631 52.7222 21.0205V21.0485C52.7222 21.8511 52.8062 22.5885 52.9742 23.2605C53.1422 23.9325 53.4036 24.5298 53.7582 25.0525C54.4489 26.1165 55.4102 26.9098 56.6422 27.4325C57.8742 27.9365 59.3022 28.1885 60.9262 28.1885ZM87.4164 20.7685C88.0324 20.7685 88.6111 20.7498 89.1524 20.7125C89.7124 20.6751 90.2257 20.6191 90.6924 20.5445C91.6257 20.3765 92.3537 20.0498 92.8764 19.5645C93.4177 19.0791 93.6884 18.3605 93.6884 17.4085V17.1845C93.6884 15.8591 93.1937 14.9725 92.2044 14.5245C91.2151 14.0765 89.6657 13.8525 87.5564 13.8525H80.5004V20.7685H87.4164ZM87.5844 23.7365H80.5004V30.7925H77.0564V10.8845H87.5844C91.0004 10.8845 93.4644 11.3791 94.9764 12.3685C96.4884 13.3391 97.2444 14.8791 97.2444 16.9885C97.2444 18.5191 96.8524 19.7045 96.0684 20.5445C95.3031 21.3845 94.1364 21.9725 92.5684 22.3085C94.0991 22.6258 95.2004 23.2418 95.8724 24.1565C96.5444 25.0711 96.8804 26.4431 96.8804 28.2725V29.5325C96.8804 29.7938 96.9084 30.0458 96.9644 30.2885C97.0391 30.5125 97.1697 30.6805 97.3564 30.7925H93.6884C93.5017 30.6991 93.3804 30.5311 93.3244 30.2885C93.2684 30.0271 93.2404 29.7658 93.2404 29.5045V28.2725C93.2404 27.6938 93.1937 27.1805 93.1004 26.7325C93.0257 26.2658 92.9044 25.8738 92.7364 25.5565C92.3817 24.8845 91.7937 24.4178 90.9724 24.1565C90.1511 23.8765 89.0217 23.7365 87.5844 23.7365ZM116.33 22.9525L111.738 14.0485L107.286 22.9525H116.33ZM120.362 30.7925L117.786 25.8085H105.858L103.366 30.7925H99.6139L109.946 10.8845H113.558L124.058 30.7925H120.362Z" fill="#1E5DFF"/>
<path d="M57.7062 31.0445L57.6698 31.2411L57.6704 31.2413L57.7062 31.0445ZM54.8502 30.2325L54.7726 30.4169L54.7766 30.4184L54.8502 30.2325ZM50.6782 26.8445L50.5118 26.9554L50.6782 26.8445ZM49.5302 17.8565L49.3373 17.8035L49.3364 17.8071L49.5302 17.8565ZM50.7062 15.2525L50.8726 15.3634L50.8735 15.362L50.7062 15.2525ZM54.9062 11.6685L54.9903 11.85H54.9903L54.9062 11.6685ZM64.1462 10.7445L64.1063 10.9405V10.9405L64.1462 10.7445ZM67.0022 11.6405L67.084 11.4579L67.0824 11.4572L67.0022 11.6405ZM71.2582 15.1965L71.0918 15.3074L71.0924 15.3083L71.2582 15.1965ZM72.4342 24.2405L72.6271 24.2934L72.4342 24.2405ZM71.2582 26.8165L71.0931 26.7037L71.0928 26.7041L71.2582 26.8165ZM63.2502 28.0205L63.2806 28.2182L63.2856 28.2173L63.2502 28.0205ZM65.2662 27.4605L65.1963 27.2731L65.1929 27.2744L65.2662 27.4605ZM68.2062 25.1925L68.3717 25.3048L68.3726 25.3034L68.2062 25.1925ZM69.0182 18.6685L69.2128 18.6224L69.0182 18.6685ZM68.2342 16.7925L68.0648 16.8988L68.0669 16.9021L68.2342 16.7925ZM65.3222 14.3565L65.2441 14.5406L65.2451 14.541L65.3222 14.3565ZM54.9342 15.3925L55.0601 15.5479L55.0603 15.5477L54.9342 15.3925ZM52.9742 23.2605L53.1682 23.212L52.9742 23.2605ZM53.7582 25.0525L53.926 24.9436L53.9237 24.9402L53.7582 25.0525ZM56.6422 27.4325L56.5641 27.6166L56.5665 27.6176L56.6422 27.4325ZM60.9542 31.1245C59.8265 31.1245 58.7558 31.032 57.742 30.8477L57.6704 31.2413C58.7099 31.4303 59.8046 31.5245 60.9542 31.5245V31.1245ZM57.7426 30.8478C56.7465 30.6634 55.8071 30.3961 54.9238 30.0465L54.7766 30.4184C55.6854 30.7782 56.6499 31.0523 57.6698 31.2411L57.7426 30.8478ZM54.9278 30.0482C53.1884 29.3158 51.8296 28.2109 50.8446 26.7335L50.5118 26.9554C51.5429 28.502 52.9654 29.6559 54.7726 30.4168L54.9278 30.0482ZM50.8446 26.7335C49.8641 25.2628 49.3662 23.3725 49.3662 21.0485H48.9662C48.9662 23.4285 49.4763 25.4021 50.5118 26.9554L50.8446 26.7335ZM49.3662 21.0485V20.9645H48.9662V21.0485H49.3662ZM49.3662 20.9645C49.3662 19.8589 49.486 18.8397 49.724 17.9059L49.3364 17.8071C49.0891 18.7773 48.9662 19.8301 48.9662 20.9645H49.3662ZM49.7231 17.9094C49.979 16.9771 50.3624 16.1288 50.8726 15.3634L50.5398 15.1415C50.0047 15.9442 49.6041 16.8319 49.3374 17.8035L49.7231 17.9094ZM50.8735 15.362C51.8788 13.8267 53.2494 12.6563 54.9903 11.85L54.8222 11.487C53.0164 12.3233 51.5869 13.5423 50.5389 15.1429L50.8735 15.362ZM54.9903 11.85C56.7335 11.0426 58.7201 10.6365 60.9542 10.6365V10.2365C58.671 10.2365 56.6256 10.6517 54.8222 11.487L54.9903 11.85ZM60.9542 10.6365C62.062 10.6365 63.1125 10.738 64.1063 10.9405L64.1861 10.5485C63.1639 10.3403 62.0865 10.2365 60.9542 10.2365V10.6365ZM64.1063 10.9405C65.1012 11.1431 66.0396 11.4377 66.9221 11.8237L67.0824 11.4572C66.1728 11.0593 65.2073 10.7565 64.1861 10.5485L64.1063 10.9405ZM66.9205 11.823C68.6796 12.6109 70.0683 13.7721 71.0918 15.3074L71.4246 15.0855C70.3575 13.4848 68.9089 12.2753 67.084 11.458L66.9205 11.823ZM71.0924 15.3083C72.111 16.818 72.6262 18.6902 72.6262 20.9365H73.0262C73.0262 18.6281 72.4961 16.6736 71.424 15.0846L71.0924 15.3083ZM72.6262 20.9365V21.0765H73.0262V20.9365H72.6262ZM72.6262 21.0765C72.6262 22.2189 72.4972 23.2554 72.2414 24.1875L72.6271 24.2934C72.8939 23.3215 73.0262 22.2487 73.0262 21.0765H72.6262ZM72.2414 24.1875C71.9855 25.1196 71.6025 25.9578 71.0931 26.7037L71.4234 26.9293C71.9593 26.1445 72.3603 25.2654 72.6271 24.2934L72.2414 24.1875ZM71.0928 26.7041C70.0893 28.1819 68.7117 29.2872 66.9533 30.0199L67.1071 30.3891C68.9327 29.6284 70.3738 28.4751 71.4237 26.9288L71.0928 26.7041ZM66.9533 30.0199C65.1893 30.7549 63.1907 31.1245 60.9542 31.1245V31.5245C63.235 31.5245 65.2871 31.1474 67.1071 30.3891L66.9533 30.0199ZM60.9262 28.3885C61.7566 28.3885 62.5415 28.3319 63.2806 28.2182L63.2198 27.8228C62.5029 27.9331 61.7385 27.9885 60.9262 27.9885V28.3885ZM63.2856 28.2173C64.025 28.0846 64.7099 27.8946 65.3395 27.6466L65.1929 27.2744C64.5905 27.5117 63.9314 27.695 63.2149 27.8236L63.2856 28.2173ZM65.3361 27.6479C66.6233 27.1676 67.6377 26.3865 68.3717 25.3048L68.0407 25.0802C67.3561 26.0892 66.4104 26.8201 65.1963 27.2731L65.3361 27.6479ZM68.3726 25.3034C69.11 24.1974 69.4702 22.7739 69.4702 21.0485H69.0702C69.0702 22.7204 68.7211 24.0596 68.0398 25.0815L68.3726 25.3034ZM69.4702 21.0485C69.4702 20.1587 69.3851 19.3495 69.2128 18.6224L68.8236 18.7146C68.9874 19.4061 69.0702 20.1836 69.0702 21.0485H69.4702ZM69.2128 18.6224C69.0402 17.8933 68.7704 17.2459 68.4015 16.6829L68.0669 16.9021C68.4074 17.4217 68.6603 18.025 68.8236 18.7146L69.2128 18.6224ZM68.4037 16.6862C67.6901 15.5483 66.6864 14.7098 65.3993 14.1719L65.2451 14.541C66.4594 15.0485 67.397 15.834 68.0648 16.8987L68.4037 16.6862ZM65.4003 14.1724C64.1382 13.6369 62.6544 13.3725 60.9542 13.3725V13.7725C62.614 13.7725 64.0423 14.0307 65.2441 14.5406L65.4003 14.1724ZM60.9542 13.3725C58.4026 13.3725 56.3468 13.987 54.8081 15.2373L55.0603 15.5477C56.5083 14.3713 58.4658 13.7725 60.9542 13.7725V13.3725ZM54.8083 15.2371C53.2718 16.4818 52.5222 18.4252 52.5222 21.0205H52.9222C52.9222 18.5011 53.6473 16.6924 55.0601 15.5479L54.8083 15.2371ZM52.5222 21.0205V21.0485H52.9222V21.0205H52.5222ZM52.5222 21.0485C52.5222 21.865 52.6077 22.6189 52.7802 23.309L53.1682 23.212C53.0048 22.5581 52.9222 21.8373 52.9222 21.0485H52.5222ZM52.7802 23.309C52.9533 24.0016 53.2237 24.6209 53.5927 25.1648L53.9237 24.9402C53.5834 24.4387 53.3311 23.8634 53.1682 23.212L52.7802 23.309ZM53.5905 25.1614C54.3041 26.2607 55.2975 27.0793 56.5641 27.6166L56.7203 27.2484C55.5229 26.7404 54.5937 25.9722 53.926 24.9436L53.5905 25.1614ZM56.5665 27.6176C57.8272 28.1333 59.2818 28.3885 60.9262 28.3885V27.9885C59.3226 27.9885 57.9213 27.7396 56.7179 27.2474L56.5665 27.6176ZM89.1524 20.7125L89.1391 20.5129L89.1386 20.513L89.1524 20.7125ZM90.6924 20.5445L90.724 20.742L90.7278 20.7413L90.6924 20.5445ZM92.8764 19.5645L92.7429 19.4155L92.7403 19.4179L92.8764 19.5645ZM92.2044 14.5245L92.1219 14.7067L92.2044 14.5245ZM80.5004 13.8525V13.6525H80.3004V13.8525H80.5004ZM80.5004 20.7685H80.3004V20.9685H80.5004V20.7685ZM80.5004 23.7365V23.5365H80.3004V23.7365H80.5004ZM80.5004 30.7925V30.9925H80.7004V30.7925H80.5004ZM77.0564 30.7925H76.8564V30.9925H77.0564V30.7925ZM77.0564 10.8845V10.6845H76.8564V10.8845H77.0564ZM94.9764 12.3685L94.8669 12.5358L94.8684 12.5368L94.9764 12.3685ZM96.0684 20.5445L95.9222 20.408L95.9206 20.4098L96.0684 20.5445ZM92.5684 22.3085L92.5265 22.1129L92.5278 22.5043L92.5684 22.3085ZM95.8724 24.1565L95.7112 24.2749L95.8724 24.1565ZM96.9644 30.2885L96.7695 30.3335L96.7717 30.3427L96.7747 30.3517L96.9644 30.2885ZM97.3564 30.7925V30.9925H98.0785L97.4593 30.621L97.3564 30.7925ZM93.6884 30.7925L93.599 30.9714L93.6412 30.9925H93.6884V30.7925ZM93.3244 30.2885L93.1288 30.3304L93.1295 30.3335L93.3244 30.2885ZM93.1004 26.7325L92.9027 26.7641L92.9046 26.7733L93.1004 26.7325ZM92.7364 25.5565L92.5595 25.6498L92.5597 25.6501L92.7364 25.5565ZM90.9724 24.1565L90.9079 24.3458L90.9118 24.3471L90.9724 24.1565ZM87.4164 20.9685C88.0364 20.9685 88.6197 20.9497 89.1662 20.912L89.1386 20.513C88.6025 20.5499 88.0284 20.5685 87.4164 20.5685V20.9685ZM89.1657 20.912C89.7307 20.8744 90.2503 20.8178 90.724 20.742L90.6608 20.347C90.2012 20.4205 89.6941 20.4759 89.1391 20.5129L89.1657 20.912ZM90.7278 20.7413C91.6867 20.5687 92.4539 20.2297 93.0125 19.711L92.7403 19.4179C92.2535 19.8699 91.5648 20.1842 90.657 20.3476L90.7278 20.7413ZM93.0099 19.7134C93.6057 19.1793 93.8884 18.3987 93.8884 17.4085H93.4884C93.4884 18.3223 93.2298 18.979 92.7429 19.4156L93.0099 19.7134ZM93.8884 17.4085V17.1845H93.4884V17.4085H93.8884ZM93.8884 17.1845C93.8884 16.4978 93.7603 15.9089 93.4921 15.428C93.2224 14.9446 92.8177 14.5826 92.2869 14.3423L92.1219 14.7067C92.5805 14.9143 92.9178 15.2196 93.1428 15.6229C93.3692 16.0287 93.4884 16.5458 93.4884 17.1845H93.8884ZM92.2869 14.3423C91.2573 13.876 89.6724 13.6525 87.5564 13.6525V14.0525C89.6591 14.0525 91.1729 14.2769 92.1219 14.7067L92.2869 14.3423ZM87.5564 13.6525H80.5004V14.0525H87.5564V13.6525ZM80.3004 13.8525V20.7685H80.7004V13.8525H80.3004ZM80.5004 20.9685H87.4164V20.5685H80.5004V20.9685ZM87.5844 23.5365H80.5004V23.9365H87.5844V23.5365ZM80.3004 23.7365V30.7925H80.7004V23.7365H80.3004ZM80.5004 30.5925H77.0564V30.9925H80.5004V30.5925ZM77.2564 30.7925V10.8845H76.8564V30.7925H77.2564ZM77.0564 11.0845H87.5844V10.6845H77.0564V11.0845ZM87.5844 11.0845C90.9909 11.0845 93.4055 11.5796 94.8669 12.5358L95.0859 12.2011C93.5233 11.1787 91.0099 10.6845 87.5844 10.6845V11.0845ZM94.8684 12.5368C96.3123 13.4638 97.0444 14.9334 97.0444 16.9885H97.4444C97.4444 14.8249 96.6645 13.2145 95.0845 12.2002L94.8684 12.5368ZM97.0444 16.9885C97.0444 18.4857 96.6614 19.616 95.9222 20.408L96.2146 20.6809C97.0434 19.793 97.4444 18.5526 97.4444 16.9885H97.0444ZM95.9206 20.4098C95.1928 21.2086 94.0699 21.7822 92.5265 22.1129L92.6103 22.504C94.2029 22.1628 95.4134 21.5604 96.2162 20.6792L95.9206 20.4098ZM92.5278 22.5043C94.0285 22.8154 95.0779 23.4129 95.7112 24.2749L96.0336 24.0381C95.3229 23.0707 94.1697 22.4362 92.609 22.1126L92.5278 22.5043ZM95.7112 24.2749C96.3468 25.1399 96.6804 26.4617 96.6804 28.2725H97.0804C97.0804 26.4245 96.742 25.0024 96.0336 24.0381L95.7112 24.2749ZM96.6804 28.2725V29.5325H97.0804V28.2725H96.6804ZM96.6804 29.5325C96.6804 29.8082 96.71 30.0753 96.7695 30.3335L97.1593 30.2435C97.1069 30.0163 97.0804 29.7794 97.0804 29.5325H96.6804ZM96.7747 30.3517C96.8631 30.6169 97.0223 30.8253 97.2535 30.964L97.4593 30.621C97.3172 30.5357 97.2151 30.4081 97.1541 30.2252L96.7747 30.3517ZM97.3564 30.5925H93.6884V30.9925H97.3564V30.5925ZM93.7779 30.6136C93.655 30.5522 93.5647 30.4405 93.5193 30.2435L93.1295 30.3335C93.1961 30.6218 93.3485 30.8461 93.599 30.9714L93.7779 30.6136ZM93.52 30.2466C93.4669 29.9987 93.4404 29.7514 93.4404 29.5045H93.0404C93.0404 29.7802 93.07 30.0556 93.1288 30.3304L93.52 30.2466ZM93.4404 29.5045V28.2725H93.0404V29.5045H93.4404ZM93.4404 28.2725C93.4404 27.6835 93.393 27.1561 93.2962 26.6917L92.9046 26.7733C92.9945 27.2049 93.0404 27.7041 93.0404 28.2725H93.4404ZM93.2979 26.7009C93.2208 26.219 93.0941 25.8047 92.9132 25.4629L92.5597 25.6501C92.7147 25.943 92.8307 26.3126 92.9029 26.7641L93.2979 26.7009ZM92.9133 25.4631C92.5308 24.7384 91.8971 24.2408 91.0331 23.9659L90.9118 24.3471C91.6904 24.5948 92.2327 25.0306 92.5595 25.6498L92.9133 25.4631ZM91.0369 23.9672C90.1857 23.677 89.0313 23.5365 87.5844 23.5365V23.9365C89.0122 23.9365 90.1165 24.076 90.9079 24.3458L91.0369 23.9672ZM116.33 22.9525V23.1525H116.658L116.508 22.8608L116.33 22.9525ZM111.738 14.0485L111.916 13.9568L111.735 13.6068L111.559 13.959L111.738 14.0485ZM107.286 22.9525L107.107 22.863L106.962 23.1525H107.286V22.9525ZM120.362 30.7925L120.184 30.8843L120.24 30.9925H120.362V30.7925ZM117.786 25.8085L117.964 25.7167L117.908 25.6085H117.786V25.8085ZM105.858 25.8085V25.6085H105.734L105.679 25.719L105.858 25.8085ZM103.366 30.7925V30.9925H103.49L103.545 30.8819L103.366 30.7925ZM99.6139 30.7925L99.4364 30.7004L99.2848 30.9925H99.6139V30.7925ZM109.946 10.8845V10.6845H109.824L109.768 10.7924L109.946 10.8845ZM113.558 10.8845L113.735 10.7912L113.679 10.6845H113.558V10.8845ZM124.058 30.7925V30.9925H124.39L124.235 30.6992L124.058 30.7925ZM116.508 22.8608L111.916 13.9568L111.56 14.1402L116.152 23.0442L116.508 22.8608ZM111.559 13.959L107.107 22.863L107.465 23.0419L111.917 14.1379L111.559 13.959ZM107.286 23.1525H116.33V22.7525H107.286V23.1525ZM120.54 30.7006L117.964 25.7167L117.608 25.9003L120.184 30.8843L120.54 30.7006ZM117.786 25.6085H105.858V26.0085H117.786V25.6085ZM105.679 25.719L103.187 30.703L103.545 30.8819L106.037 25.8979L105.679 25.719ZM103.366 30.5925H99.6139V30.9925H103.366V30.5925ZM99.7914 30.8846L110.123 10.9766L109.768 10.7924L99.4364 30.7004L99.7914 30.8846ZM109.946 11.0845H113.558V10.6845H109.946V11.0845ZM113.381 10.9778L123.881 30.8858L124.235 30.6992L113.735 10.7912L113.381 10.9778ZM124.058 30.5925H120.362V30.9925H124.058V30.5925Z" fill="#1E5DFF"/>
</svg>
